<?xml version="1.0" encoding="UTF-8"?>
<svg version="1.1" xmlns="http://www.w3.org/2000/svg" width="79" height="73">
<path d="M0 0 C1.01070557 -0.00112793 2.02141113 -0.00225586 3.06274414 -0.00341797 C11.92901384 0.25662328 18.32554447 2.54941679 24.8125 8.75 C24.8125 9.41 24.8125 10.07 24.8125 10.75 C25.8025 11.08 26.7925 11.41 27.8125 11.75 C32.38876733 18.61853867 32.39096485 24.78998403 32.25 32.875 C32.25708984 34.02871094 32.26417969 35.18242188 32.27148438 36.37109375 C32.19256115 46.89823758 32.19256115 46.89823758 28.8125 51.75 C24.49671053 55.75 24.49671053 55.75 21.8125 55.75 C21.56282471 56.36423828 21.31314941 56.97847656 21.0559082 57.61132812 C18.80529743 61.48239634 14.96307095 62.52741013 10.8125 63.75 C6.89713255 64.28089728 3.07110647 64.3113782 -0.875 64.25 C-1.88111328 64.26546875 -2.88722656 64.2809375 -3.92382812 64.296875 C-11.31148749 64.25791569 -14.5283582 62.92125623 -20.0625 58.125 C-21.1875 56.75 -21.1875 56.75 -21.1875 54.75 C-21.8475 54.75 -22.5075 54.75 -23.1875 54.75 C-23.1875 54.09 -23.1875 53.43 -23.1875 52.75 C-24.1775 52.42 -25.1675 52.09 -26.1875 51.75 C-26.875 49.6875 -26.875 49.6875 -27.1875 47.75 C-27.8475 47.75 -28.5075 47.75 -29.1875 47.75 C-33.29740497 41.58514255 -31.93242179 31.92769103 -31.1875 24.75 C-29.61765754 18.80271222 -27.23241265 13.43472457 -23.1875 8.75 C-22.5275 8.75 -21.8675 8.75 -21.1875 8.75 C-21.1875 8.09 -21.1875 7.43 -21.1875 6.75 C-20.5275 6.75 -19.8675 6.75 -19.1875 6.75 C-19.1875 6.09 -19.1875 5.43 -19.1875 4.75 C-12.68539969 0.90260337 -7.51264818 -0.02104557 0 0 Z " fill="#C3B962" transform="translate(38.1875,4.25)"/>
<path d="M0 0 C2.31 0.33 4.62 0.66 7 1 C7.495 2.485 7.495 2.485 8 4 C9.32 4 10.64 4 12 4 C13.8515625 5.71484375 13.8515625 5.71484375 15.625 7.9375 C17.93623974 10.93259705 17.93623974 10.93259705 21 13 C21 13.66 21 14.32 21 15 C22.32 15.33 23.64 15.66 25 16 C25.08746928 20.04152915 25.14054982 24.08281305 25.1875 28.125 C25.21263672 29.26710938 25.23777344 30.40921875 25.26367188 31.5859375 C25.35493909 42.0512447 25.35493909 42.0512447 22 47 C19.66705225 47.04241723 17.33297433 47.04092937 15 47 C14 46 14 46 13.9375 43.4375 C13.958125 42.633125 13.97875 41.82875 14 41 C13.34 41 12.68 41 12 41 C12 41.66 12 42.32 12 43 C11.34 43 10.68 43 10 43 C10 41.68 10 40.36 10 39 C6.88214887 39.64644661 6.88214887 39.64644661 6 42 C4.68 42 3.36 42 2 42 C1.67 43.32 1.34 44.64 1 46 C-0.22976562 46.19916016 -0.22976562 46.19916016 -1.484375 46.40234375 C-2.56203125 46.57894531 -3.6396875 46.75554688 -4.75 46.9375 C-5.81734375 47.11152344 -6.8846875 47.28554688 -7.984375 47.46484375 C-10.89399486 47.93194082 -10.89399486 47.93194082 -13.265625 48.62890625 C-15 49 -15 49 -17 48 C-17 47.34 -17 46.68 -17 46 C-17.7425 45.9175 -18.485 45.835 -19.25 45.75 C-22.67377952 44.81624195 -23.85130816 43.81552724 -26 41 C-27.25 37.25 -27.25 37.25 -28 34 C-26.515 33.505 -26.515 33.505 -25 33 C-24.9175 32.2575 -24.835 31.515 -24.75 30.75 C-23.84562401 27.43395471 -22.6285474 26.16468609 -20 24 C-19.01 23.67 -18.02 23.34 -17 23 C-16.34 23.33 -15.68 23.66 -15 24 C-15 22.68 -15 21.36 -15 20 C-15.66 20 -16.32 20 -17 20 C-16.67 19.34 -16.34 18.68 -16 18 C-15.34 18.33 -14.68 18.66 -14 19 C-14 24.61 -14 30.22 -14 36 C-14.99 36 -15.98 36 -17 36 C-17 36.99 -17 37.98 -17 39 C-15.02 39 -13.04 39 -11 39 C-10.67 40.32 -10.34 41.64 -10 43 C-9.67 41.68 -9.34 40.36 -9 39 C-7.68 39 -6.36 39 -5 39 C-5 40.98 -5 42.96 -5 45 C-4.34 45 -3.68 45 -3 45 C-3 43.02 -3 41.04 -3 39 C-1.906875 38.690625 -0.81375 38.38125 0.3125 38.0625 C2.55407994 37.41662103 4.7869351 36.7376883 7 36 C6.505 32.535 6.505 32.535 6 29 C5.01 28.67 4.02 28.34 3 28 C3 27.01 3 26.02 3 25 C3.66 25 4.32 25 5 25 C4.97873538 21.59385054 4.97873538 21.59385054 4 18 C1.06550592 15.98958997 1.06550592 15.98958997 -2 15 C-2 14.01 -2 13.02 -2 12 C-0.35 11.34 1.3 10.68 3 10 C3 9.01 3 8.02 3 7 C5.31 7.33 7.62 7.66 10 8 C10 7.34 10 6.68 10 6 C6.7 5.01 3.4 4.02 0 3 C0 2.01 0 1.02 0 0 Z " fill="#A69952" transform="translate(45,9)"/>
<path d="M0 0 C3.27075883 -0.0580476 6.54138524 -0.09361165 9.8125 -0.125 C11.2056543 -0.15013672 11.2056543 -0.15013672 12.62695312 -0.17578125 C13.51962891 -0.18222656 14.41230469 -0.18867188 15.33203125 -0.1953125 C16.15421143 -0.20578613 16.9763916 -0.21625977 17.82348633 -0.22705078 C20 0 20 0 23 2 C22.67 3.32 22.34 4.64 22 6 C20.35 6.33 18.7 6.66 17 7 C17.72268235 10.2985139 17.72268235 10.2985139 21.0625 11.6875 C22.5165625 12.3371875 22.5165625 12.3371875 24 13 C24 15.31 24 17.62 24 20 C23.34 20 22.68 20 22 20 C22 20.99 22 21.98 22 23 C23.32 23.33 24.64 23.66 26 24 C26.3125 27.3125 26.3125 27.3125 26 31 C23.35244337 33.34497873 21.7063007 33.95291329 18.1875 34.1875 C17.465625 34.125625 16.74375 34.06375 16 34 C16 35.98 16 37.96 16 40 C15.34 40 14.68 40 14 40 C14 38.02 14 36.04 14 34 C12.68 34 11.36 34 10 34 C10 35.98 10 37.96 10 40 C9.34 39.34 8.68 38.68 8 38 C8 36.68 8 35.36 8 34 C6.02 34 4.04 34 2 34 C2 33.01 2 32.02 2 31 C2.99 31 3.98 31 5 31 C5 25.39 5 19.78 5 14 C4.67 14.33 4.34 14.66 4 15 C4 16.32 4 17.64 4 19 C3.401875 19.103125 2.80375 19.20625 2.1875 19.3125 C-0.29861534 20.09385053 -1.22943442 21.14895416 -3 23 C-3.66 23 -4.32 23 -5 23 C-5.12375 23.78375 -5.2475 24.5675 -5.375 25.375 C-6 28 -6 28 -8 30 C-8.66 30.33 -9.32 30.66 -10 31 C-10 30.34 -10 29.68 -10 29 C-10.66 29 -11.32 29 -12 29 C-11.67 27.02 -11.34 25.04 -11 23 C-11.66 23 -12.32 23 -13 23 C-13 23.66 -13 24.32 -13 25 C-13.66 25 -14.32 25 -15 25 C-15 23.68 -15 22.36 -15 21 C-13.68 21.33 -12.36 21.66 -11 22 C-11.57452746 18.06924356 -11.57452746 18.06924356 -14 15 C-13.21625 14.938125 -12.4325 14.87625 -11.625 14.8125 C-10.325625 14.4103125 -10.325625 14.4103125 -9 14 C-7.66096786 11.65245602 -7.66096786 11.65245602 -7 9 C-6.67 8.01 -6.34 7.02 -6 6 C-4.02 5.67 -2.04 5.34 0 5 C0 3.35 0 1.7 0 0 Z " fill="#AA994C" transform="translate(26,14)"/>
<path d="M0 0 C2.31 0.33 4.62 0.66 7 1 C7.33 1.99 7.66 2.98 8 4 C9.32 4 10.64 4 12 4 C13.8515625 5.71484375 13.8515625 5.71484375 15.625 7.9375 C17.93623974 10.93259705 17.93623974 10.93259705 21 13 C21 13.66 21 14.32 21 15 C22.32 15.33 23.64 15.66 25 16 C25.08746928 20.04152915 25.14054982 24.08281305 25.1875 28.125 C25.21263672 29.26710938 25.23777344 30.40921875 25.26367188 31.5859375 C25.35493909 42.0512447 25.35493909 42.0512447 22 47 C19.69 47 17.38 47 15 47 C15.33 46.34 15.66 45.68 16 45 C16.66 45 17.32 45 18 45 C18.433125 43.63875 18.433125 43.63875 18.875 42.25 C20 39 20 39 21.0625 37 C22.28520717 34.39155804 22.6127292 31.83998588 23 29 C21.35 29 19.7 29 18 29 C18 29.99 18 30.98 18 32 C16.35 31.67 14.7 31.34 13 31 C13.33 28.69 13.66 26.38 14 24 C13.21625 24.185625 12.4325 24.37125 11.625 24.5625 C9 25 9 25 7 24 C7 23.34 7 22.68 7 22 C7.66 22 8.32 22 9 22 C8.67 21.443125 8.34 20.88625 8 20.3125 C6.8690399 17.69715478 6.84337026 15.8193354 7 13 C7.99 13 8.98 13 10 13 C10.33 14.98 10.66 16.96 11 19 C12.32 19 13.64 19 15 19 C15 20.65 15 22.3 15 24 C17.31 24.33 19.62 24.66 22 25 C22.33 23.02 22.66 21.04 23 19 C22.04287109 18.90912109 22.04287109 18.90912109 21.06640625 18.81640625 C20.24011719 18.73261719 19.41382812 18.64882813 18.5625 18.5625 C17.73878906 18.48128906 16.91507813 18.40007813 16.06640625 18.31640625 C14 18 14 18 13 17 C12.95936168 15.33382885 12.957279 13.66611905 13 12 C12.34 12 11.68 12 11 12 C11 11.34 11 10.68 11 10 C10.01 9.67 9.02 9.34 8 9 C8.66 8.67 9.32 8.34 10 8 C10 7.34 10 6.68 10 6 C6.7 5.01 3.4 4.02 0 3 C0 2.01 0 1.02 0 0 Z " fill="#A58B4B" transform="translate(45,9)"/>
<path d="M0 0 C3.37462715 0.54723683 5.08235 1.0549 8 3 C8 3.66 8 4.32 8 5 C8.66 5 9.32 5 10 5 C10.33 6.65 10.66 8.3 11 10 C13.97 10.66 16.94 11.32 20 12 C20 13.98 20 15.96 20 18 C16.37673261 19.2077558 15.35853631 18.54311128 12 17 C12 15.35 12 13.7 12 12 C10.68 12 9.36 12 8 12 C7.67 10.02 7.34 8.04 7 6 C6.01 6 5.02 6 4 6 C4.66 8.97 5.32 11.94 6 15 C5.34 15 4.68 15 4 15 C4 15.66 4 16.32 4 17 C6.31 17 8.62 17 11 17 C11 19.31 11 21.62 11 24 C12.32 24.33 13.64 24.66 15 25 C15 24.01 15 23.02 15 22 C16.65 22 18.3 22 20 22 C20.7941888 28.0358349 18.29681915 33.0687015 15 38 C13.515 38.495 13.515 38.495 12 39 C12.33 37.02 12.66 35.04 13 33 C13.66 33 14.32 33 15 33 C15 31.68 15 30.36 15 29 C13.02 29.33 11.04 29.66 9 30 C9 28.35 9 26.7 9 25 C7.68 25.99 6.36 26.98 5 28 C5 26.02 5 24.04 5 22 C3.35 21.67 1.7 21.34 0 21 C0 20.01 0 19.02 0 18 C0.66 18 1.32 18 2 18 C1.97873538 14.59385054 1.97873538 14.59385054 1 11 C-1.93449408 8.98958997 -1.93449408 8.98958997 -5 8 C-5 7.01 -5 6.02 -5 5 C-3.35 4.34 -1.7 3.68 0 3 C0 2.01 0 1.02 0 0 Z " fill="#9D8D45" transform="translate(48,16)"/>
<path d="M0 0 C0.66 0 1.32 0 2 0 C2 5.28 2 10.56 2 16 C4.31 16 6.62 16 9 16 C9 16.33 9 16.66 9 17 C6.69 17 4.38 17 2 17 C2 19.97 2 22.94 2 26 C5.3 25.67 8.6 25.34 12 25 C11.67 22.36 11.34 19.72 11 17 C16.875 17.875 16.875 17.875 18 19 C18.375 22.375 18.375 22.375 18 26 C15.35244337 28.34497873 13.7063007 28.95291329 10.1875 29.1875 C9.465625 29.125625 8.74375 29.06375 8 29 C8 30.98 8 32.96 8 35 C7.34 35 6.68 35 6 35 C6 33.02 6 31.04 6 29 C4.68 29 3.36 29 2 29 C2 30.98 2 32.96 2 35 C1.34 34.34 0.68 33.68 0 33 C0 31.68 0 30.36 0 29 C-1.98 29 -3.96 29 -6 29 C-6 28.01 -6 27.02 -6 26 C-5.01 26 -4.02 26 -3 26 C-3 20.39 -3 14.78 -3 9 C-4.32 8.67 -5.64 8.34 -7 8 C-7 7.34 -7 6.68 -7 6 C-4.69 6 -2.38 6 0 6 C0 4.02 0 2.04 0 0 Z " fill="#E9E395" transform="translate(34,19)"/>
<path d="M0 0 C0.99 0.66 1.98 1.32 3 2 C1.625 3.5 1.625 3.5 0 5 C-0.66 5 -1.32 5 -2 5 C-2.24967529 5.61423828 -2.49935059 6.22847656 -2.7565918 6.86132812 C-5.00720257 10.73239634 -8.84942905 11.77741013 -13 13 C-16.91536745 13.53089728 -20.74139353 13.5613782 -24.6875 13.5 C-25.69361328 13.51546875 -26.69972656 13.5309375 -27.73632812 13.546875 C-33.79257381 13.51493699 -37.36018959 12.98375545 -42 9 C-38.6853333 6.97092833 -36.5684021 6.87257867 -32.75 7.375 C-31.41195313 7.54128906 -31.41195313 7.54128906 -30.046875 7.7109375 C-29.03367187 7.85402344 -29.03367187 7.85402344 -28 8 C-28 7.01 -28 6.02 -28 5 C-27.02160156 4.81824219 -27.02160156 4.81824219 -26.0234375 4.6328125 C-21.21353658 3.71056011 -16.60974535 2.69832723 -12 1 C-12 1.66 -12 2.32 -12 3 C-13.32 3.33 -14.64 3.66 -16 4 C-16 5.32 -16 6.64 -16 8 C-12.7 7.67 -9.4 7.34 -6 7 C-6 6.34 -6 5.68 -6 5 C-4.34467377 3.98133771 -2.67739862 2.98189187 -1 2 C-0.67 1.34 -0.34 0.68 0 0 Z " fill="#E0D069" transform="translate(62,55)"/>
<path d="M0 0 C0.66 0 1.32 0 2 0 C2.309375 1.1446875 2.309375 1.1446875 2.625 2.3125 C4.42070704 5.82229103 6.43136312 6.52599781 10 8 C10 10.31 10 12.62 10 15 C9.34 15 8.68 15 8 15 C8 15.66 8 16.32 8 17 C7.01 17 6.02 17 5 17 C5.33 19.64 5.66 22.28 6 25 C3 26 3 26 -4 26 C-4 19.4 -4 12.8 -4 6 C-2.68 6 -1.36 6 0 6 C0 4.02 0 2.04 0 0 Z " fill="#E8E487" transform="translate(40,19)"/>
<path d="M0 0 C0.99 0 1.98 0 3 0 C3 1.32 3 2.64 3 4 C3.66 4 4.32 4 5 4 C5 3.34 5 2.68 5 2 C5.66 2 6.32 2 7 2 C7.4640625 3.423125 7.4640625 3.423125 7.9375 4.875 C8.87394742 7.86080408 8.87394742 7.86080408 10 10 C7 12 7 12 4 12 C4 12.66 4 13.32 4 14 C0.7 14.33 -2.6 14.66 -6 15 C-6 13.68 -6 12.36 -6 11 C-4.68 10.67 -3.36 10.34 -2 10 C-2 9.34 -2 8.68 -2 8 C-2.7425 8.495 -3.485 8.99 -4.25 9.5 C-9.11594026 12.003491 -14.68585836 11.23217124 -20 11 C-20 10.34 -20 9.68 -20 9 C-18.4176994 8.66179834 -16.83410625 8.32964061 -15.25 8 C-14.36828125 7.814375 -13.4865625 7.62875 -12.578125 7.4375 C-10 7 -10 7 -6 7 C-5.67 5.68 -5.34 4.36 -5 3 C-3.68 3 -2.36 3 -1 3 C-0.67 2.01 -0.34 1.02 0 0 Z " fill="#B8A34E" transform="translate(52,48)"/>
<path d="M0 0 C0.66 0.99 1.32 1.98 2 3 C1.06027344 3.58007812 1.06027344 3.58007812 0.1015625 4.171875 C-0.71570313 4.69265625 -1.53296875 5.2134375 -2.375 5.75 C-3.18710937 6.26046875 -3.99921875 6.7709375 -4.8359375 7.296875 C-7.08555679 9.0673335 -7.95906848 10.36907419 -9 13 C-9.66 13 -10.32 13 -11 13 C-11 14.98 -11 16.96 -11 19 C-10.34 18.67 -9.68 18.34 -9 18 C-8.67 17.01 -8.34 16.02 -8 15 C-7.34 15 -6.68 15 -6 15 C-6 14.34 -6 13.68 -6 13 C-5.34 13.33 -4.68 13.66 -4 14 C-4.59393382 15.29640378 -5.20057989 16.58698839 -5.8125 17.875 C-6.14894531 18.59429688 -6.48539063 19.31359375 -6.83203125 20.0546875 C-8 22 -8 22 -11 24 C-10.67 24.33 -10.34 24.66 -10 25 C-9.95936168 26.66617115 -9.957279 28.33388095 -10 30 C-11.32 29.67 -12.64 29.34 -14 29 C-14 30.32 -14 31.64 -14 33 C-13.34 33 -12.68 33 -12 33 C-12 32.34 -12 31.68 -12 31 C-11.34 31 -10.68 31 -10 31 C-10 32.32 -10 33.64 -10 35 C-10.66 35 -11.32 35 -12 35 C-12.495 37.475 -12.495 37.475 -13 40 C-13.66 40 -14.32 40 -15 40 C-15.33 35.38 -15.66 30.76 -16 26 C-16.66 26 -17.32 26 -18 26 C-17.4428749 18.94308208 -13.86355341 12.79533011 -10 7 C-9.34 7 -8.68 7 -8 7 C-8 6.34 -8 5.68 -8 5 C-7.34 5 -6.68 5 -6 5 C-6 4.34 -6 3.68 -6 3 C-4.02 2.01 -2.04 1.02 0 0 Z " fill="#CCC163" transform="translate(25,6)"/>
<path d="M0 0 C0.66 0 1.32 0 2 0 C2 0.66 2 1.32 2 2 C6.62 2 11.24 2 16 2 C16.33 3.32 16.66 4.64 17 6 C16.10796875 6.12117187 15.2159375 6.24234375 14.296875 6.3671875 C12.54117188 6.61855469 12.54117188 6.61855469 10.75 6.875 C9.58984375 7.03742187 8.4296875 7.19984375 7.234375 7.3671875 C4.40172604 7.92140143 2.39938549 8.43117103 0 10 C-0.80528889 12.05000871 -0.80528889 12.05000871 -1 14 C-5.75 15.125 -5.75 15.125 -8 14 C-8 14.66 -8 15.32 -8 16 C-8.66 16 -9.32 16 -10 16 C-10.33 17.32 -10.66 18.64 -11 20 C-11.66 20 -12.32 20 -13 20 C-13 18.02 -13 16.04 -13 14 C-12.34 14 -11.68 14 -11 14 C-10.835 13.278125 -10.67 12.55625 -10.5 11.8125 C-8.57831166 8.20933436 -6.32599733 7.16313423 -2.77734375 5.30859375 C-0.81474425 4.12246107 -0.81474425 4.12246107 -0.25390625 1.84765625 C-0.17011719 1.23792969 -0.08632813 0.62820312 0 0 Z " fill="#B5AC4F" transform="translate(27,5)"/>
<path d="M0 0 C5.875 0.875 5.875 0.875 7 2 C7.375 5.375 7.375 5.375 7 9 C4.35244337 11.34497873 2.7063007 11.95291329 -0.8125 12.1875 C-1.8953125 12.0946875 -1.8953125 12.0946875 -3 12 C-3 13.98 -3 15.96 -3 18 C-3.66 18 -4.32 18 -5 18 C-5 16.02 -5 14.04 -5 12 C-6.32 12 -7.64 12 -9 12 C-9 13.98 -9 15.96 -9 18 C-9.66 17.34 -10.32 16.68 -11 16 C-11 14.68 -11 13.36 -11 12 C-12.98 12 -14.96 12 -17 12 C-17 11.01 -17 10.02 -17 9 C-15.8553125 9.2784375 -15.8553125 9.2784375 -14.6875 9.5625 C-11.91032625 10.22819173 -11.91032625 10.22819173 -9 9 C-7.27467737 8.77991948 -5.54465967 8.59496906 -3.8125 8.4375 C-2.46091797 8.31181641 -2.46091797 8.31181641 -1.08203125 8.18359375 C-0.39496094 8.12300781 0.29210937 8.06242187 1 8 C0.67 5.36 0.34 2.72 0 0 Z " fill="#F1EA92" transform="translate(45,36)"/>
<path d="M0 0 C2.31 0.33 4.62 0.66 7 1 C7.33 1.99 7.66 2.98 8 4 C9.32 4 10.64 4 12 4 C13.8515625 5.71484375 13.8515625 5.71484375 15.625 7.9375 C17.93623974 10.93259705 17.93623974 10.93259705 21 13 C21.72693904 14.97888961 22.39816251 16.97954558 23 19 C21.52031676 18.85950482 20.04125484 18.71245174 18.5625 18.5625 C17.73878906 18.48128906 16.91507813 18.40007813 16.06640625 18.31640625 C14 18 14 18 13 17 C12.95936168 15.33382885 12.957279 13.66611905 13 12 C12.34 12 11.68 12 11 12 C11 11.34 11 10.68 11 10 C10.01 9.67 9.02 9.34 8 9 C8.66 8.67 9.32 8.34 10 8 C10 7.34 10 6.68 10 6 C6.7 5.01 3.4 4.02 0 3 C0 2.01 0 1.02 0 0 Z " fill="#AE9744" transform="translate(45,9)"/>
<path d="M0 0 C2.31 0.66 4.62 1.32 7 2 C7 2.66 7 3.32 7 4 C11.62 4.66 16.24 5.32 21 6 C21 6.33 21 6.66 21 7 C18.36 7 15.72 7 13 7 C13 7.99 13 8.98 13 10 C8.05 10 3.1 10 -2 10 C-2.66 8.68 -3.32 7.36 -4 6 C-4.66 6 -5.32 6 -6 6 C-5.67 5.01 -5.34 4.02 -5 3 C-3.68 3 -2.36 3 -1 3 C-1 3.66 -1 4.32 -1 5 C-0.01 5.33 0.98 5.66 2 6 C2 6.33 2 6.66 2 7 C3.65 7.33 5.3 7.66 7 8 C7 7.01 7 6.02 7 5 C4.03 4.505 4.03 4.505 1 4 C0.67 2.68 0.34 1.36 0 0 Z " fill="#D6C967" transform="translate(21,53)"/>
<path d="M0 0 C0 0.66 0 1.32 0 2 C-5.58476069 5.58214448 -10.48257253 5.3564056 -16.875 5.1875 C-17.84953125 5.17396484 -18.8240625 5.16042969 -19.828125 5.14648438 C-22.21932863 5.11131962 -24.60936975 5.0621067 -27 5 C-27 4.01 -27 3.02 -27 2 C-24.08006693 1.17938158 -21.36704354 0.82268048 -18.33984375 0.68359375 C-17.0259668 0.62075195 -17.0259668 0.62075195 -15.68554688 0.55664062 C-14.77869141 0.51732422 -13.87183594 0.47800781 -12.9375 0.4375 C-11.57141602 0.37272461 -11.57141602 0.37272461 -10.17773438 0.30664062 C-6.78089741 0.14893928 -3.40095058 0 0 0 Z " fill="#F4F4B6" transform="translate(55,63)"/>
<path d="M0 0 C1.32 0.33 2.64 0.66 4 1 C4.08746928 5.04152915 4.14054982 9.08281305 4.1875 13.125 C4.21263672 14.26710938 4.23777344 15.40921875 4.26367188 16.5859375 C4.35493909 27.0512447 4.35493909 27.0512447 1 32 C-1.31 32 -3.62 32 -6 32 C-5.67 31.34 -5.34 30.68 -5 30 C-4.34 30 -3.68 30 -3 30 C-2.566875 28.63875 -2.566875 28.63875 -2.125 27.25 C-1 24 -1 24 0.0234375 22.19140625 C2.54567168 16.53151275 2.77773707 8.62392333 1.0625 2.6875 C0.5365625 1.3571875 0.5365625 1.3571875 0 0 Z " fill="#A39F5E" transform="translate(66,24)"/>
<path d="M0 0 C1.65 0 3.3 0 5 0 C5.7941888 6.0358349 3.29681915 11.0687015 0 16 C-0.99 16.33 -1.98 16.66 -3 17 C-2.67 15.02 -2.34 13.04 -2 11 C-1.34 11 -0.68 11 0 11 C0 9.68 0 8.36 0 7 C-1.98 7.33 -3.96 7.66 -6 8 C-5.67 6.35 -5.34 4.7 -5 3 C-3.35 3 -1.7 3 0 3 C0 2.01 0 1.02 0 0 Z " fill="#957734" transform="translate(63,38)"/>
<path d="M0 0 C6.0546875 -0.1953125 6.0546875 -0.1953125 8 0 C10 2 10 2 10.125 4.625 C10.08375 5.40875 10.0425 6.1925 10 7 C6.52674819 8.1577506 3.63932552 8.06866652 0 8 C0 5.36 0 2.72 0 0 Z " fill="#A79F4D" transform="translate(36,37)"/>
<path d="M0 0 C0.99 0 1.98 0 3 0 C3.33 1.65 3.66 3.3 4 5 C8.455 5.99 8.455 5.99 13 7 C13 8.98 13 10.96 13 13 C9.37673261 14.2077558 8.35853631 13.54311128 5 12 C5 10.35 5 8.7 5 7 C3.68 7 2.36 7 1 7 C0.67 4.69 0.34 2.38 0 0 Z " fill="#A48338" transform="translate(55,21)"/>
<path d="M0 0 C0 2.31 0 4.62 0 7 C-1.875 8.0625 -1.875 8.0625 -4 9 C-4.66 8.67 -5.32 8.34 -6 8 C-6 8.66 -6 9.32 -6 10 C-6.66 10 -7.32 10 -8 10 C-8.33 11.32 -8.66 12.64 -9 14 C-9.66 14 -10.32 14 -11 14 C-11 12.02 -11 10.04 -11 8 C-10.34 8 -9.68 8 -9 8 C-8.7525 7.236875 -8.505 6.47375 -8.25 5.6875 C-6.36807696 1.64136546 -4.50311555 0 0 0 Z " fill="#C4B554" transform="translate(25,11)"/>
<path d="M0 0 C0.66 0 1.32 0 2 0 C2 5.28 2 10.56 2 16 C1.01 16.33 0.02 16.66 -1 17 C-2.35439668 14.29120665 -2.06501451 11.99066732 -2 9 C-3.65 8.67 -5.3 8.34 -7 8 C-7 7.34 -7 6.68 -7 6 C-4.69 6 -2.38 6 0 6 C0 4.02 0 2.04 0 0 Z " fill="#F4EFA1" transform="translate(34,19)"/>
<path d="M0 0 C4.95 0.99 4.95 0.99 10 2 C10 2.66 10 3.32 10 4 C10.99 4.33 11.98 4.66 13 5 C14.16796875 7.06640625 14.16796875 7.06640625 15.1875 9.5625 C15.53167969 10.38878906 15.87585938 11.21507812 16.23046875 12.06640625 C16.48441406 12.70449219 16.73835938 13.34257812 17 14 C15.68 13.67 14.36 13.34 13 13 C13 12.34 13 11.68 13 11 C12.360625 10.731875 11.72125 10.46375 11.0625 10.1875 C9 9 9 9 8 6 C5.99983534 4.79117904 5.99983534 4.79117904 4 4 C4 3.34 4 2.68 4 2 C2.68 2 1.36 2 0 2 C0 1.34 0 0.68 0 0 Z " fill="#C0BF62" transform="translate(53,11)"/>
<path d="M0 0 C0.66 0.99 1.32 1.98 2 3 C1.06027344 3.58007812 1.06027344 3.58007812 0.1015625 4.171875 C-0.71570312 4.69265625 -1.53296875 5.2134375 -2.375 5.75 C-3.18710937 6.26046875 -3.99921875 6.7709375 -4.8359375 7.296875 C-7.08555679 9.0673335 -7.95906848 10.36907419 -9 13 C-9.66 13 -10.32 13 -11 13 C-11.33 13.99 -11.66 14.98 -12 16 C-12.99 15.67 -13.98 15.34 -15 15 C-14.21718695 13.66144944 -13.42348123 12.32926356 -12.625 11 C-12.18414062 10.2575 -11.74328125 9.515 -11.2890625 8.75 C-10.86367187 8.1725 -10.43828125 7.595 -10 7 C-9.34 7 -8.68 7 -8 7 C-8 6.34 -8 5.68 -8 5 C-7.34 5 -6.68 5 -6 5 C-6 4.34 -6 3.68 -6 3 C-4.02 2.01 -2.04 1.02 0 0 Z " fill="#DBE188" transform="translate(25,6)"/>
<path d="M0 0 C0.99 0 1.98 0 3 0 C3 0.66 3 1.32 3 2 C4.98 2 6.96 2 9 2 C9 2.99 9 3.98 9 5 C7.35 5 5.7 5 4 5 C3.67 6.32 3.34 7.64 3 9 C-0.24271506 8.4409112 -1.93057424 7.5867822 -4 5 C-4 4.34 -4 3.68 -4 3 C-2.68 2.67 -1.36 2.34 0 2 C0 1.34 0 0.68 0 0 Z " fill="#A19046" transform="translate(24,46)"/>
<path d="M0 0 C1.98 0.66 3.96 1.32 6 2 C6.33 3.65 6.66 5.3 7 7 C8.98 7.66 10.96 8.32 13 9 C13 9.99 13 10.98 13 12 C11.02 12 9.04 12 7 12 C7 11.34 7 10.68 7 10 C6.34 9.67 5.68 9.34 5 9 C5 8.34 5 7.68 5 7 C2.69 7.33 0.38 7.66 -2 8 C-1.34 7.67 -0.68 7.34 0 7 C0 4.69 0 2.38 0 0 Z " fill="#BEAC50" transform="translate(15,49)"/>
<path d="M0 0 C3.62528568 -0.20140476 5.86501708 0.14223235 9 2 C8.625 4.4375 8.625 4.4375 8 7 C5.29120665 8.35439668 2.99066732 8.06501451 0 8 C0 5.36 0 2.72 0 0 Z " fill="#B3AE57" transform="translate(36,27)"/>
<path d="M0 0 C0.33 0 0.66 0 1 0 C1 5.94 1 11.88 1 18 C0.01 18.33 -0.98 18.66 -2 19 C-2 13.39 -2 7.78 -2 2 C-1.34 2 -0.68 2 0 2 C0 1.34 0 0.68 0 0 Z " fill="#BEC376" transform="translate(9,30)"/>
<path d="M0 0 C2.31 0 4.62 0 7 0 C7.1953125 6.0546875 7.1953125 6.0546875 7 8 C6.34 8.66 5.68 9.32 5 10 C5 9.34 5 8.68 5 8 C3.68 8.99 2.36 9.98 1 11 C0.67 7.37 0.34 3.74 0 0 Z " fill="#957F3E" transform="translate(52,33)"/>
<path d="M0 0 C0.66 0 1.32 0 2 0 C2 2.31 2 4.62 2 7 C-5.42857143 9.14285714 -5.42857143 9.14285714 -9 10 C-9 11.98 -9 13.96 -9 16 C-9.66 15.34 -10.32 14.68 -11 14 C-11 12.68 -11 11.36 -11 10 C-12.98 10 -14.96 10 -17 10 C-17 9.01 -17 8.02 -17 7 C-15.8553125 7.2784375 -15.8553125 7.2784375 -14.6875 7.5625 C-11.91032625 8.22819173 -11.91032625 8.22819173 -9 7 C-7.27467737 6.77991948 -5.54465967 6.59496906 -3.8125 6.4375 C-2.91144531 6.35371094 -2.01039062 6.26992188 -1.08203125 6.18359375 C-0.39496094 6.12300781 0.29210937 6.06242187 1 6 C0.67 4.02 0.34 2.04 0 0 Z " fill="#E5DF8A" transform="translate(45,38)"/>
<path d="M0 0 C0.99 0.33 1.98 0.66 3 1 C1.6875 2.5 1.6875 2.5 0 4 C-0.99 4 -1.98 4 -3 4 C-3 4.66 -3 5.32 -3 6 C-6.3 6.33 -9.6 6.66 -13 7 C-13 5.68 -13 4.36 -13 3 C-10.02556993 2.44661766 -7.28125324 1.99360788 -4.25 2.0625 C-1.79404457 2.2521778 -1.79404457 2.2521778 0 0 Z " fill="#CABD5E" transform="translate(59,56)"/>
<path d="M0 0 C6.6 0 13.2 0 20 0 C20.33 0.99 20.66 1.98 21 3 C13.74 3 6.48 3 -1 3 C-0.67 2.01 -0.34 1.02 0 0 Z " fill="#DDDD8C" transform="translate(29,5)"/>
<path d="M0 0 C0.66 0 1.32 0 2 0 C1.979375 0.804375 1.95875 1.60875 1.9375 2.4375 C1.70366379 4.93354885 1.70366379 4.93354885 3 6 C3.07179964 7.51928038 3.08392007 9.04167482 3.0625 10.5625 C3.05347656 11.38878906 3.04445313 12.21507812 3.03515625 13.06640625 C3.01775391 14.02353516 3.01775391 14.02353516 3 15 C2.34 15 1.68 15 1 15 C1 14.34 1 13.68 1 13 C0.34 13 -0.32 13 -1 13 C-0.67 11.02 -0.34 9.04 0 7 C-0.66 7 -1.32 7 -2 7 C-2 7.66 -2 8.32 -2 9 C-2.66 9 -3.32 9 -4 9 C-4 7.68 -4 6.36 -4 5 C-2.68 5.33 -1.36 5.66 0 6 C0 4.02 0 2.04 0 0 Z " fill="#AA9A42" transform="translate(15,30)"/>
<path d="M0 0 C-0.4979837 3.73487777 -0.87491756 5.81237635 -3 9 C-6.625 9.1875 -6.625 9.1875 -10 9 C-9.67 8.34 -9.34 7.68 -9 7 C-8.34 7 -7.68 7 -7 7 C-6.731875 6.030625 -6.46375 5.06125 -6.1875 4.0625 C-5.795625 3.051875 -5.40375 2.04125 -5 1 C-2 0 -2 0 0 0 Z " fill="#9C9D60" transform="translate(70,47)"/>
<path d="M0 0 C2.64 0 5.28 0 8 0 C7.50769231 6.4 7.50769231 6.4 4.9375 9.4375 C3.9784375 10.2109375 3.9784375 10.2109375 3 11 C1.875 7.25 1.875 7.25 3 5 C3.66 5 4.32 5 5 5 C5 3.68 5 2.36 5 1 C3.02 1.33 1.04 1.66 -1 2 C-0.67 1.34 -0.34 0.68 0 0 Z " fill="#856D2E" transform="translate(58,44)"/>
<path d="M0 0 C0 0.66 0 1.32 0 2 C0.66 2.33 1.32 2.66 2 3 C0.68 3 -0.64 3 -2 3 C-2 3.99 -2 4.98 -2 6 C-7.75 4.375 -7.75 4.375 -10 1 C-6.61981469 -0.04005702 -3.5219721 -0.08004482 0 0 Z " fill="#E6E897" transform="translate(30,62)"/>
<path d="M0 0 C1.28132813 0.00902344 2.56265625 0.01804688 3.8828125 0.02734375 C4.87023438 0.03894531 5.85765625 0.05054688 6.875 0.0625 C3.48916198 3.19357836 1.16390538 3.39800778 -3.375 3.25 C-4.99148437 3.20939453 -4.99148437 3.20939453 -6.640625 3.16796875 C-7.46046875 3.13316406 -8.2803125 3.09835938 -9.125 3.0625 C-9.125 2.4025 -9.125 1.7425 -9.125 1.0625 C-6.12186252 -0.43906874 -3.33432478 -0.03031204 0 0 Z " fill="#C0B256" transform="translate(41.125,55.9375)"/>
<path d="M0 0 C1.32 0 2.64 0 4 0 C4 0.66 4 1.32 4 2 C4.99 2.33 5.98 2.66 7 3 C7.6875 5.0625 7.6875 5.0625 8 7 C6.35 7 4.7 7 3 7 C2.34 5.68 1.68 4.36 1 3 C0.34 3 -0.32 3 -1 3 C-0.67 2.01 -0.34 1.02 0 0 Z " fill="#C3CA83" transform="translate(16,56)"/>
<path d="M0 0 C1.65 0 3.3 0 5 0 C5.33 0.66 5.66 1.32 6 2 C5.34 2 4.68 2 4 2 C3.67 3.32 3.34 4.64 3 6 C-0.3 6.33 -3.6 6.66 -7 7 C-6.67 6.34 -6.34 5.68 -6 5 C-4.02 5 -2.04 5 0 5 C0 3.35 0 1.7 0 0 Z " fill="#9E9045" transform="translate(43,49)"/>
<path d="M0 0 C1.98 0.495 1.98 0.495 4 1 C5.125 5.75 5.125 5.75 4 8 C3.01 8 2.02 8 1 8 C-0.42944945 5.64561267 -1.08661261 4.51967567 -0.625 1.75 C-0.41875 1.1725 -0.2125 0.595 0 0 Z " fill="#BDC979" transform="translate(11,48)"/>
<path d="M0 0 C2.31 0 4.62 0 7 0 C7 0.99 7 1.98 7 3 C7.66 3.33 8.32 3.66 9 4 C4.71 4 0.42 4 -4 4 C-2.68 3.67 -1.36 3.34 0 3 C0 2.01 0 1.02 0 0 Z " fill="#EDE37E" transform="translate(34,60)"/>
<path d="M0 0 C3.72450216 2.10515339 5.6795921 3.24267224 7.375 7.25 C7.58125 8.1575 7.7875 9.065 8 10 C5.03 9.505 5.03 9.505 2 9 C2 7.35 2 5.7 2 4 C1.01 3.67 0.02 3.34 -1 3 C-0.67 2.01 -0.34 1.02 0 0 Z " fill="#AB9038" transform="translate(60,18)"/>
<path d="M0 0 C0.99 0.66 1.98 1.32 3 2 C1.625 3.5 1.625 3.5 0 5 C-0.66 5 -1.32 5 -2 5 C-2.268125 5.639375 -2.53625 6.27875 -2.8125 6.9375 C-4 9 -4 9 -7 10 C-7 9.34 -7 8.68 -7 8 C-7.99 7.67 -8.98 7.34 -10 7 C-8.68 7 -7.36 7 -6 7 C-6 6.34 -6 5.68 -6 5 C-4.34467377 3.98133771 -2.67739862 2.98189187 -1 2 C-0.67 1.34 -0.34 0.68 0 0 Z " fill="#C9DD8D" transform="translate(62,55)"/>
<path d="M0 0 C0 0.66 0 1.32 0 2 C1.32 2 2.64 2 4 2 C3.67 2.99 3.34 3.98 3 5 C3 4.34 3 3.68 3 3 C2.01 3 1.02 3 0 3 C0 3.66 0 4.32 0 5 C-1.65 5.66 -3.3 6.32 -5 7 C-5.33 5.35 -5.66 3.7 -6 2 C-3 0 -3 0 0 0 Z " fill="#AB995E" transform="translate(24,43)"/>
<path d="M0 0 C0.99 0 1.98 0 3 0 C3.33 1.65 3.66 3.3 4 5 C4.99 5.33 5.98 5.66 7 6 C7.33 7.98 7.66 9.96 8 12 C7.01 12 6.02 12 5 12 C5 10.35 5 8.7 5 7 C3.68 7 2.36 7 1 7 C0.67 4.69 0.34 2.38 0 0 Z " fill="#997D3C" transform="translate(55,21)"/>
<path d="M0 0 C0.66 0 1.32 0 2 0 C2.28875 0.78375 2.5775 1.5675 2.875 2.375 C3.84912254 5.09671632 3.84912254 5.09671632 6 7 C4.68 7 3.36 7 2 7 C1.67 7.66 1.34 8.32 1 9 C-0.65 8.67 -2.3 8.34 -4 8 C-4 7.34 -4 6.68 -4 6 C-2.68 6 -1.36 6 0 6 C0 4.02 0 2.04 0 0 Z " fill="#E6DC8E" transform="translate(40,19)"/>
<path d="M0 0 C0 2.31 0 4.62 0 7 C-0.99 7.33 -1.98 7.66 -3 8 C-3.66 7.01 -4.32 6.02 -5 5 C-5.99 4.67 -6.98 4.34 -8 4 C-3.375 0 -3.375 0 0 0 Z " fill="#CCC266" transform="translate(25,11)"/>
<path d="M0 0 C0.66 0 1.32 0 2 0 C2.625 1.8125 2.625 1.8125 3 4 C2.01 5.485 2.01 5.485 1 7 C1 7.99 1 8.98 1 10 C0 12.1875 0 12.1875 -1 14 C-1.99 13.67 -2.98 13.34 -4 13 C-3.34 13 -2.68 13 -2 13 C-2.04125 11.783125 -2.0825 10.56625 -2.125 9.3125 C-2.13754508 5.78105873 -1.59998217 3.19996434 0 0 Z " fill="#BAB25E" transform="translate(27,5)"/>
<path d="M0 0 C0.66 0 1.32 0 2 0 C2 0.99 2 1.98 2 3 C2.66 3 3.32 3 4 3 C3.67 4.32 3.34 5.64 3 7 C1.02 7.33 -0.96 7.66 -3 8 C-2.67 7.34 -2.34 6.68 -2 6 C-1.34 6 -0.68 6 0 6 C0 4.02 0 2.04 0 0 Z " fill="#F6F19F" transform="translate(32,39)"/>
<path d="M0 0 C1.48280196 0.78483659 2.9611498 1.57809334 4.4375 2.375 C5.67306641 3.03628906 5.67306641 3.03628906 6.93359375 3.7109375 C9 5 9 5 10 7 C5.545 6.01 5.545 6.01 1 5 C0.67 3.35 0.34 1.7 0 0 Z " fill="#D5D97F" transform="translate(51,6)"/>
<path d="M0 0 C0.99 0.33 1.98 0.66 3 1 C2.43628586 4.26954202 1.50037734 5.82575883 -1 8 C-1.99 7.67 -2.98 7.34 -4 7 C-3.67 6.34 -3.34 5.68 -3 5 C-2.34 5 -1.68 5 -1 5 C-0.67 3.35 -0.34 1.7 0 0 Z " fill="#978749" transform="translate(21,37)"/>
<path d="M0 0 C0.99 0 1.98 0 3 0 C3 0.66 3 1.32 3 2 C3.66 2 4.32 2 5 2 C5 3.32 5 4.64 5 6 C2.03 5.505 2.03 5.505 -1 5 C-0.67 3.35 -0.34 1.7 0 0 Z " fill="#988D4A" transform="translate(25,27)"/>
<path d="M0 0 C0 0.66 0 1.32 0 2 C-2.64738916 3.4606285 -3.89448334 4 -7 4 C-7 3.34 -7 2.68 -7 2 C-8.98 2 -10.96 2 -13 2 C-13 1.67 -13 1.34 -13 1 C-11.39602723 0.83147753 -9.7918131 0.66525114 -8.1875 0.5 C-7.29417969 0.4071875 -6.40085937 0.314375 -5.48046875 0.21875 C-3 0 -3 0 0 0 Z " fill="#ECEE93" transform="translate(55,63)"/>
<path d="M0 0 C2.31 0.66 4.62 1.32 7 2 C7 2.66 7 3.32 7 4 C7.66 4.33 8.32 4.66 9 5 C6.36 4.67 3.72 4.34 1 4 C0.67 2.68 0.34 1.36 0 0 Z " fill="#D2BC5B" transform="translate(21,53)"/>
<path d="M0 0 C1.98 0 3.96 0 6 0 C6.33 1.32 6.66 2.64 7 4 C4.69 3.67 2.38 3.34 0 3 C0 2.01 0 1.02 0 0 Z " fill="#F4EE98" transform="translate(42,26)"/>
<path d="M0 0 C-0.3125 2.875 -0.3125 2.875 -1 6 C-1.99 6.66 -2.98 7.32 -4 8 C-4 5.69 -4 3.38 -4 1 C-2 0 -2 0 0 0 Z " fill="#A3B077" transform="translate(70,47)"/>
<path d="M0 0 C1.32 0.33 2.64 0.66 4 1 C4 4.63 4 8.26 4 12 C3.67 12 3.34 12 3 12 C2.86722656 11.38511719 2.73445313 10.77023438 2.59765625 10.13671875 C2.42105469 9.32847656 2.24445313 8.52023438 2.0625 7.6875 C1.88847656 6.88699219 1.71445313 6.08648437 1.53515625 5.26171875 C1.00113841 2.854599 1.00113841 2.854599 0 0 Z " fill="#B2A04B" transform="translate(66,24)"/>
<path d="M0 0 C2.31 0 4.62 0 7 0 C7 1.32 7 2.64 7 4 C4.36 3.67 1.72 3.34 -1 3 C-0.67 2.01 -0.34 1.02 0 0 Z " fill="#A38746" transform="translate(56,45)"/>
<path d="M0 0 C0.33 0.66 0.66 1.32 1 2 C0.34 2 -0.32 2 -1 2 C-1 3.65 -1 5.3 -1 7 C-2.32 7 -3.64 7 -5 7 C-4.1875 4.0625 -4.1875 4.0625 -3 1 C-2.01 0.67 -1.02 0.34 0 0 Z " fill="#D0D470" transform="translate(13,21)"/>
<path d="M0 0 C0.66 0.99 1.32 1.98 2 3 C1.34 3.66 0.68 4.32 0 5 C-3.125 4.625 -3.125 4.625 -6 4 C-4.03617993 2.49440461 -2.21736634 1.10868317 0 0 Z " fill="#E7EB87" transform="translate(25,6)"/>
<path d="M0 0 C0.99 0 1.98 0 3 0 C3 0.99 3 1.98 3 3 C5.64 2.67 8.28 2.34 11 2 C11 2.66 11 3.32 11 4 C9.54176788 4.0270043 8.08339325 4.04639787 6.625 4.0625 C5.81289063 4.07410156 5.00078125 4.08570312 4.1640625 4.09765625 C2 4 2 4 0 3 C0 2.01 0 1.02 0 0 Z " fill="#E4DA73" transform="translate(41,60)"/>
<path d="M0 0 C0.66 0 1.32 0 2 0 C2.33 0.99 2.66 1.98 3 3 C1.6875 4.5 1.6875 4.5 0 6 C-0.99 6 -1.98 6 -3 6 C-1.125 1.125 -1.125 1.125 0 0 Z " fill="#BA9E40" transform="translate(57,53)"/>
<path d="M0 0 C1.65 0.33 3.3 0.66 5 1 C4.67 1.99 4.34 2.98 4 4 C2.35 4 0.7 4 -1 4 C-0.67 2.68 -0.34 1.36 0 0 Z " fill="#AFA557" transform="translate(39,39)"/>
<path d="M0 0 C0.99 0.33 1.98 0.66 3 1 C3 2.65 3 4.3 3 6 C1.68 5.67 0.36 5.34 -1 5 C-0.67 3.35 -0.34 1.7 0 0 Z " fill="#C9B752" transform="translate(12,30)"/>
<path d="M0 0 C0 0.66 0 1.32 0 2 C-3.73487777 1.5020163 -5.81237635 1.12508244 -9 -1 C-5.79937313 -2.60031344 -3.27728194 -1.03173691 0 0 Z " fill="#CAB75D" transform="translate(55,15)"/>
<path d="M0 0 C1.98 0.99 1.98 0.99 4 2 C4 3.32 4 4.64 4 6 C2.68 5.67 1.36 5.34 0 5 C0 3.35 0 1.7 0 0 Z " fill="#C7BA69" transform="translate(15,44)"/>
</svg>
